<svg width="104" height="32" viewBox="0 0 104 32" fill="none" xmlns="http://www.w3.org/2000/svg"><g clip-path="url(#clip0_1172_15406)"><path d="M16.9887 0C7.66882 0 0.926758 6.79163 0.926758 16.1363C0.926758 25.3323 7.66882 32.0248 16.9887 32.0248C26.5069 32.0248 33.1498 25.481 33.1498 16.1363C33.1498 6.79163 26.3582 0 16.9887 0ZM25.6642 23.7955C23.6069 26.0511 20.5333 27.3153 17.0383 27.3153C13.5433 27.3153 10.4945 26.0759 8.41243 23.7955C6.60298 21.8125 5.66107 19.1603 5.71065 16.1115C5.80979 9.31991 10.3706 4.68474 17.0383 4.63517C17.0879 4.63517 17.1127 4.63517 17.1622 4.63517C23.6564 4.63517 28.2668 9.34469 28.366 16.1363C28.3907 19.1603 27.4736 21.8373 25.6642 23.7955Z" fill="white"></path> <path d="M97.7449 24.1673C95.5637 26.2246 91.9944 27.4392 87.731 27.4392C84.4591 27.4392 81.906 26.5717 79.9727 24.7622C78.188 23.275 76.9734 21.0194 76.5768 18.3424L102.801 18.2184L102.826 17.8218C103.099 11.7738 101.934 7.18823 99.3065 4.23857C96.8278 1.41286 92.9858 0 87.9293 0C79.3282 0 72.7349 5.75058 71.8177 14.0294C71.8177 14.0294 71.5203 16.3346 71.8177 18.3672C72.2143 22.5066 73.7759 25.7785 76.4777 28.0341C79.6256 30.7111 83.2693 32.0248 87.6318 32.0248C94.6961 32.0248 100.397 29.3478 102.925 24.8613L103.074 24.5887C103.074 24.5887 100.918 22.1348 97.7449 24.1673ZM80.1957 7.41131C82.3274 5.5275 84.9301 4.56081 87.9293 4.56081C94.2252 4.56081 97.6458 7.70875 98.0919 13.9551L76.5768 14.0046C77.0478 11.2781 78.3367 8.89853 80.1957 7.41131Z" fill="white"></path> <path d="M42.4693 0L33.1494 3.91634L34.5127 8.05577L39.5445 5.77537V26.3734V30.4632C42.0232 30.4632 44.0309 28.0589 44.0309 25.605V0H42.4693Z" fill="#00A985"></path> <path d="M64.4314 3.09837C62.2749 1.01627 59.4244 0 55.7559 0C52.955 0 50.4019 0.669249 48.3694 1.93339C47.4771 2.52827 46.6839 3.22231 46.0146 3.99071V8.74981C47.254 8.60108 48.4438 7.26259 48.4438 7.26259C48.5429 7.16344 48.6173 7.08908 48.7164 7.01472C50.5259 5.40356 52.7567 4.58559 55.3098 4.58559C57.9124 4.58559 59.7466 5.20527 60.9116 6.49419C62.1758 7.78311 62.845 10.361 62.8946 14.1534L63.0681 31.4051C65.5716 31.4051 67.5793 29.2239 67.5793 26.5469V13.8559C67.5793 8.79938 66.5383 5.18048 64.4314 3.09837Z" fill="white"></path></g> <defs><clipPath id="clip0_1172_15406"><rect width="102.147" height="32" fill="white" transform="translate(0.926758)"></rect></clipPath></defs></svg>